<svg width="24" height="24" xmlns="http://www.w3.org/2000/svg" fill-rule="evenodd" clip-rule="evenodd"><path d="M17.968 17.117l-1.306-1.147-.66.751 2.029 1.782 2.966-3.12-.725-.689-2.304 2.423zm4.39-.693c0-2.218-1.806-4.025-4.026-4.025-2.218 0-4.024 1.807-4.024 4.025 0 2.218 1.806 4.026 4.024 4.026 2.22 0 4.026-1.808 4.026-4.026zm1.642 6.98l-.803.596-2.394-3.226c-.731.418-1.567.676-2.471.676-.66 0-1.288-.136-1.865-.367l-4.968 2.65v-11.701l10.501-5.404v6.384c.836.897 1.358 2.091 1.358 3.412 0 1.51-.683 2.85-1.738 3.772l2.38 3.208zm-2.527-17.629l-10.474-5.775-4.831 2.635 10.642 5.54 4.663-2.4zm-16.362-2.563l-4.582 2.499 10.472 5.453 4.719-2.428-10.609-5.524zm-5.112 3.351l10.501 5.467v11.703l-10.501-5.602v-11.568z"/></svg>